<svg xmlns="http://www.w3.org/2000/svg" viewBox="0 0 128 128">
  <defs>
    <linearGradient id="bg" x1="0" y1="0" x2="0" y2="1">
      <stop offset="0%" stop-color="#1e293b"/>
      <stop offset="100%" stop-color="#020617"/>
    </linearGradient>
    <linearGradient id="arch" x1="0" y1="0" x2="1" y2="1">
      <stop offset="0%" stop-color="#38bdf8"/>
      <stop offset="100%" stop-color="#0ea5e9"/>
    </linearGradient>
  </defs>
  <rect x="4" y="4" width="120" height="120" rx="24" fill="url(#bg)"/>
  <g transform="translate(14, 10) scale(0.8)">
    <path fill="url(#arch)" d="M64 8c-8 20.5-15 35.7-24.5 54.8 6.2 6.6 13.3 11.8 22.4 15.8-5.4-2.8-9.2-6.6-12.3-10.9 3.5-3.1 7.2-5.2 11-5.2 3.8 0 7.5 2.1 11 5.2-3.1 4.3-6.9 8.1-12.3 10.9 9.1-4 16.2-9.2 22.4-15.8C79 43.7 72 28.5 64 8z"/>
  </g>
  <circle cx="100" cy="28" r="10" fill="#22c55e"/>
  <rect x="32" y="96" width="64" height="8" rx="4" fill="#64748b"/>
</svg>

